<svg width="154" height="154" viewBox="0 0 154 154" fill="none" xmlns="http://www.w3.org/2000/svg">
<circle cx="77" cy="77" r="77" fill="#466584"/>
<g clip-path="url(#clip0_719:54)" filter="url(#filter0_i_719:54)">
<path d="M118.244 46.3715L114.372 45.3338L116.447 37.5885L108.702 35.5132L106.626 43.2585L67.8998 32.8817L69.9752 25.1364L62.2299 23.061L60.1545 30.8064L56.2818 29.7687C52.0219 28.6272 47.6026 31.1787 46.4612 35.4387L29.8584 97.4012C28.7169 101.661 31.2684 106.08 35.5283 107.222L97.4909 123.825C101.751 124.966 106.17 122.415 107.312 118.155L123.914 56.1922C125.056 51.9323 122.504 47.513 118.244 46.3715ZM99.5662 116.079L37.6037 99.4766L51.0935 49.132L113.056 65.7348L99.5662 116.079Z" fill="white"/>
</g>
<defs>
<filter id="filter0_i_719:54" x="19" y="14" width="117.848" height="121.848" filterUnits="userSpaceOnUse" color-interpolation-filters="sRGB">
<feFlood flood-opacity="0" result="BackgroundImageFix"/>
<feBlend mode="normal" in="SourceGraphic" in2="BackgroundImageFix" result="shape"/>
<feColorMatrix in="SourceAlpha" type="matrix" values="0 0 0 0 0 0 0 0 0 0 0 0 0 0 0 0 0 0 127 0" result="hardAlpha"/>
<feOffset dy="4"/>
<feGaussianBlur stdDeviation="2"/>
<feComposite in2="hardAlpha" operator="arithmetic" k2="-1" k3="1"/>
<feColorMatrix type="matrix" values="0 0 0 0 0 0 0 0 0 0 0 0 0 0 0 0 0 0 0.25 0"/>
<feBlend mode="normal" in2="shape" result="effect1_innerShadow_719:54"/>
</filter>
<clipPath id="clip0_719:54">
<rect width="96.2226" height="96.2226" fill="white" transform="translate(43.9042 14) rotate(15)"/>
</clipPath>
</defs>
</svg>
