<svg width="154" height="154" viewBox="0 0 154 154" fill="none" xmlns="http://www.w3.org/2000/svg">
<circle cx="77" cy="77" r="77" fill="#A6BBBC"/>
<g clip-path="url(#clip0)" filter="url(#filter0_i)">
<path d="M104.889 31.6296L42.7514 38.3529C40.554 38.5907 38.5412 39.6915 37.1555 41.4134C35.7699 43.1352 35.1251 45.337 35.3628 47.5343L36.7075 59.9618L28.4225 60.8582L29.3189 69.1432L37.6039 68.2468L38.5003 76.5317L30.2154 77.4282L31.1118 85.7132L39.3968 84.8167L40.2932 93.1017L32.0082 93.9981L32.9047 102.283L41.1897 101.387L42.5343 113.814C42.7721 116.011 43.873 118.024 45.5948 119.41C47.3167 120.796 49.5184 121.44 51.7157 121.203L113.853 114.479C114.952 114.361 115.958 113.81 116.651 112.949C117.344 112.088 117.666 110.987 117.547 109.889L109.479 35.3239C109.361 34.2252 108.81 33.2188 107.949 32.526C107.088 31.8332 105.987 31.5107 104.889 31.6296ZM73.093 47.6387C79.9198 46.9 86.126 51.8905 86.8651 58.7215C87.2094 62.0155 86.2376 65.312 84.1617 67.8925C82.0858 70.4731 79.074 72.1284 75.7827 72.4978C68.9601 73.236 62.7488 68.2376 62.0102 61.4108C61.2711 54.5799 66.2703 48.3769 73.093 47.6387ZM103.775 98.8059L54.0653 104.185L53.7292 101.078C52.7346 91.8855 62.9176 81.224 76.5671 79.7471C90.2166 78.2702 102.444 86.5068 103.439 95.699L103.775 98.8059Z" fill="#E8E9E7"/>
</g>
<defs>
<filter id="filter0_i" x="17" y="22" width="110.177" height="114.177" filterUnits="userSpaceOnUse" color-interpolation-filters="sRGB">
<feFlood flood-opacity="0" result="BackgroundImageFix"/>
<feBlend mode="normal" in="SourceGraphic" in2="BackgroundImageFix" result="shape"/>
<feColorMatrix in="SourceAlpha" type="matrix" values="0 0 0 0 0 0 0 0 0 0 0 0 0 0 0 0 0 0 127 0" result="hardAlpha"/>
<feOffset dy="4"/>
<feGaussianBlur stdDeviation="2"/>
<feComposite in2="hardAlpha" operator="arithmetic" k2="-1" k3="1"/>
<feColorMatrix type="matrix" values="0 0 0 0 0 0 0 0 0 0 0 0 0 0 0 0 0 0 0.25 0"/>
<feBlend mode="normal" in2="shape" result="effect1_innerShadow"/>
</filter>
<clipPath id="clip0">
<rect width="100" height="100" fill="white" transform="translate(17 32.7573) rotate(-6.1754)"/>
</clipPath>
</defs>
</svg>
