<svg width="119" height="119" viewBox="0 0 119 119" fill="none" xmlns="http://www.w3.org/2000/svg">
<circle cx="59.5" cy="59.5" r="59.5" fill="#E7E8E7"/>
<path d="M92.9588 38.3995C90.5234 39.4787 87.9071 40.2079 85.1567 40.5374C87.9946 38.8393 90.1178 36.1667 91.13 33.0183C88.4637 34.602 85.5456 35.7168 82.5025 36.3141C80.4561 34.1291 77.7456 32.6809 74.7918 32.1942C71.838 31.7076 68.8061 32.2097 66.167 33.6228C63.5278 35.0358 61.429 37.2806 60.1963 40.0087C58.9637 42.7367 58.6662 45.7955 59.35 48.7099C53.9474 48.4387 48.6623 47.0345 43.8375 44.5884C39.0128 42.1424 34.7562 38.7092 31.3442 34.5116C30.1775 36.5241 29.5067 38.8574 29.5067 41.3424C29.5054 43.5795 30.0563 45.7823 31.1105 47.7554C32.1647 49.7285 33.6897 51.4109 35.55 52.6533C33.3925 52.5846 31.2826 52.0016 29.3959 50.9529V51.1279C29.3956 54.2654 30.481 57.3065 32.4676 59.7349C34.4543 62.1634 37.22 63.8297 40.2954 64.4512C38.294 64.9929 36.1956 65.0726 34.1588 64.6845C35.0265 67.3842 36.7167 69.745 38.9928 71.4364C41.2688 73.1278 44.0169 74.065 46.8521 74.117C42.0391 77.8953 36.0951 79.9448 29.9763 79.9358C28.8924 79.9361 27.8094 79.8728 26.7329 79.7462C32.9439 83.7396 40.1739 85.859 47.5579 85.8508C72.5538 85.8508 86.2184 65.1483 86.2184 47.1933C86.2184 46.6099 86.2038 46.0208 86.1775 45.4374C88.8355 43.5153 91.1298 41.1351 92.9529 38.4083L92.9588 38.3995Z" fill="black"/>
</svg>
