<svg width="119" height="119" viewBox="0 0 119 119" fill="none" xmlns="http://www.w3.org/2000/svg">
<circle cx="59.5" cy="59.5" r="59.5" fill="#E8E9E7"/>
<path d="M59.9906 42.0416C50.0528 42.0416 42.0325 50.062 42.0325 60C42.0325 69.938 50.0528 77.9584 59.9906 77.9584C69.9284 77.9584 77.9486 69.938 77.9486 60C77.9486 50.062 69.9284 42.0416 59.9906 42.0416ZM59.9906 71.6716C53.5639 71.6716 48.3192 66.4268 48.3192 60C48.3192 53.5732 53.5639 48.3284 59.9906 48.3284C66.4173 48.3284 71.662 53.5732 71.662 60C71.662 66.4268 66.4173 71.6716 59.9906 71.6716ZM78.6841 37.1208C76.3639 37.1208 74.4901 38.9946 74.4901 41.3149C74.4901 43.6352 76.3639 45.509 78.6841 45.509C81.0044 45.509 82.8781 43.6439 82.8781 41.3149C82.8788 40.7639 82.7708 40.2182 82.5603 39.7091C82.3498 39.1999 82.0409 38.7373 81.6513 38.3477C81.2617 37.9581 80.7991 37.6492 80.2899 37.4386C79.7808 37.2281 79.2351 37.1201 78.6841 37.1208ZM94.9961 60C94.9961 55.1667 95.0399 50.3772 94.7684 45.5527C94.497 39.949 93.2187 34.9756 89.121 30.8778C85.0145 26.7713 80.05 25.5017 74.4463 25.2303C69.6132 24.9588 64.8238 25.0026 59.9993 25.0026C55.1662 25.0026 50.3768 24.9588 45.5524 25.2303C39.9487 25.5017 34.9754 26.7801 30.8777 30.8778C26.7713 34.9843 25.5017 39.949 25.2303 45.5527C24.9588 50.386 25.0026 55.1755 25.0026 60C25.0026 64.8245 24.9588 69.6228 25.2303 74.4473C25.5017 80.051 26.78 85.0244 30.8777 89.1222C34.9842 93.2287 39.9487 94.4983 45.5524 94.7697C50.3855 95.0412 55.1749 94.9974 59.9993 94.9974C64.8325 94.9974 69.6219 95.0412 74.4463 94.7697C80.05 94.4983 85.0233 93.2199 89.121 89.1222C93.2274 85.0157 94.497 80.051 94.7684 74.4473C95.0486 69.6228 94.9961 64.8333 94.9961 60ZM87.291 80.6465C86.6519 82.24 85.8814 83.4308 84.6468 84.6567C83.4122 85.8912 82.2302 86.6618 80.6367 87.3009C76.0311 89.1309 65.0952 88.7194 59.9906 88.7194C54.886 88.7194 43.9413 89.1309 39.3358 87.3097C37.7422 86.6705 36.5514 85.9 35.3256 84.6654C34.0911 83.4308 33.3206 82.2488 32.6814 80.6552C30.8602 76.0408 31.2717 65.1047 31.2717 60C31.2717 54.8953 30.8602 43.9504 32.6814 39.3448C33.3206 37.7512 34.0911 36.5604 35.3256 35.3346C36.5602 34.1088 37.7422 33.3295 39.3358 32.6903C43.9413 30.8691 54.886 31.2806 59.9906 31.2806C65.0952 31.2806 76.0399 30.8691 80.6454 32.6903C82.239 33.3295 83.4297 34.1 84.6556 35.3346C85.8901 36.5692 86.6606 37.7512 87.2998 39.3448C89.121 43.9504 88.7095 54.8953 88.7095 60C88.7095 65.1047 89.121 76.0408 87.291 80.6465Z" fill="black"/>
</svg>
