<svg width="119" height="119" viewBox="0 0 119 119" fill="none" xmlns="http://www.w3.org/2000/svg">
<circle cx="59.5" cy="59.5" r="59.5" fill="#E8E9E7"/>
<path d="M89.3467 45.2412C88.998 43.9426 88.3144 42.7584 87.3642 41.8071C86.4141 40.8557 85.2307 40.1706 83.9326 39.8203C79.1543 38.5352 60 38.5352 60 38.5352C60 38.5352 40.8457 38.5352 36.0674 39.8135C34.7687 40.1626 33.5847 40.8474 32.6344 41.7989C31.6841 42.7504 31.0009 43.9352 30.6533 45.2344C29.375 50.0195 29.375 60 29.375 60C29.375 60 29.375 69.9805 30.6533 74.7588C31.3574 77.3975 33.4355 79.4756 36.0674 80.1797C40.8457 81.4648 60 81.4648 60 81.4648C60 81.4648 79.1543 81.4648 83.9326 80.1797C86.5713 79.4756 88.6426 77.3975 89.3467 74.7588C90.625 69.9805 90.625 60 90.625 60C90.625 60 90.625 50.0195 89.3467 45.2412ZM53.916 69.1602V50.8398L69.7754 59.9316L53.916 69.1602Z" fill="black"/>
</svg>
