<svg width="1015" height="28" viewBox="0 0 1015 28" fill="none" xmlns="http://www.w3.org/2000/svg">
<circle cx="14" cy="14" r="14" fill="#C4C4C4" fill-opacity="0.4"/>
<circle cx="66" cy="14" r="14" fill="#C4C4C4" fill-opacity="0.4"/>
<circle cx="118" cy="14" r="14" fill="#C4C4C4" fill-opacity="0.5"/>
<circle cx="170" cy="14" r="14" fill="#C4C4C4" fill-opacity="0.5"/>
<circle cx="222" cy="14" r="14" fill="#C4C4C4" fill-opacity="0.5"/>
<circle cx="274" cy="14" r="14" fill="#C4C4C4" fill-opacity="0.6"/>
<circle cx="326" cy="14" r="14" fill="#C4C4C4" fill-opacity="0.6"/>
<circle cx="378" cy="14" r="14" fill="#C4C4C4" fill-opacity="0.6"/>
<circle cx="430" cy="14" r="14" fill="#C4C4C4" fill-opacity="0.7"/>
<circle cx="482" cy="14" r="14" fill="#C4C4C4" fill-opacity="0.7"/>
<circle cx="534" cy="14" r="14" fill="#C4C4C4" fill-opacity="0.7"/>
<circle cx="586" cy="14" r="14" fill="#C4C4C4" fill-opacity="0.8"/>
<circle cx="638" cy="14" r="14" fill="#C4C4C4" fill-opacity="0.8"/>
<circle cx="690" cy="14" r="14" fill="#C4C4C4" fill-opacity="0.8"/>
<circle cx="742" cy="14" r="14" fill="#C4C4C4" fill-opacity="0.9"/>
<circle cx="793" cy="14" r="14" fill="#C4C4C4" fill-opacity="0.9"/>
<circle cx="845" cy="14" r="14" fill="#C4C4C4" fill-opacity="0.9"/>
<circle cx="897" cy="14" r="14" fill="#C4C4C4"/>
<circle cx="949" cy="14" r="14" fill="#C4C4C4"/>
<circle cx="1001" cy="14" r="14" fill="#C4C4C4"/>
</svg>
